<svg width="1200" height="120" viewBox="0 0 1200 120" fill="none" xmlns="http://www.w3.org/2000/svg">
  <defs>
    <linearGradient id="divider" x1="0" y1="60" x2="1200" y2="60" gradientUnits="userSpaceOnUse">
      <stop stop-color="#070809" stop-opacity="0"/>
      <stop offset="0.18" stop-color="#75D6FF" stop-opacity="0.8"/>
      <stop offset="0.5" stop-color="#D3F4FF" stop-opacity="1"/>
      <stop offset="0.82" stop-color="#9A8CFF" stop-opacity="0.8"/>
      <stop offset="1" stop-color="#070809" stop-opacity="0"/>
    </linearGradient>
    <style>
      .m1 { animation: drift 18s linear infinite; }
      .m2 { animation: drift2 22s linear infinite; }
      @keyframes drift {
        0% { transform: translateX(-30px); }
        50% { transform: translateX(30px); }
        100% { transform: translateX(-30px); }
      }
      @keyframes drift2 {
        0% { transform: translateX(50px); }
        50% { transform: translateX(-50px); }
        100% { transform: translateX(50px); }
      }
    </style>
  </defs>
  <rect width="1200" height="120" rx="18" fill="#030508"/>
  <path d="M80 60H1120" stroke="url(#divider)" stroke-width="2"/>
  <g class="m1" opacity="0.9">
    <path d="M243 52C243 45.3726 248.373 40 255 40C259.85 40 264.046 42.8921 265.932 47.0434C266.845 46.6227 267.862 46.4 268.931 46.4C272.947 46.4 276.4 49.4442 276.4 53.2C276.4 57.3971 272.075 60.8 266.74 60.8H253.4C247.656 60.8 243 56.8603 243 52Z" fill="#D6F5FF" fill-opacity="0.08" stroke="#BFEFFF"/>
  </g>
  <g class="m2" opacity="0.8">
    <path d="M876 74C876 67.9249 880.925 63 887 63C891.446 63 895.291 65.6507 897.02 69.455C897.857 69.0695 898.79 68.8653 899.771 68.8653C903.456 68.8653 906.624 71.6592 906.624 75.1082C906.624 78.9614 902.653 82.0855 897.754 82.0855H885.508C880.233 82.0855 876 78.4682 876 74Z" fill="#D6F5FF" fill-opacity="0.06" stroke="#BFEFFF"/>
  </g>
  <circle cx="600" cy="60" r="4" fill="#E8FBFF"/>
  <circle cx="556" cy="60" r="2.5" fill="#A0E4FF"/>
  <circle cx="644" cy="60" r="2.5" fill="#A0E4FF"/>
</svg>
